# xmcd
#
# Track frame offsets: 
#        150
#        11974
#        24121
#        38542
#        49479
#        61877
#        75132
#        86181
#        100022
#        112977
#        126359
#        140043
#        153604
#        164742
#        175938
#        188308
#        199901
#        212200
#        222306
#        231048
#        239426
#        246904
#        255075
#        265911
#        276392
#        285272
#        294667
#        300869
#
# Disc length: 4126 seconds
#
# Revision: 4
# Processed by: cddbd v1.5.2PL0 Copyright (c) Steve Scherf et al.
# Submitted via: ExactAudioCopyFreeDBPlugin 1.0
#
DISCID=8a101c1c
DTITLE=Hank Williams - Hillbilly Hero [CD 3)
DYEAR=2002
DGENRE=Hillbilly
TTITLE0=Dear John
TTITLE1=Just Waitin'
TTITLE2=Men With Broken Hearts
TTITLE3=I Can't Help It
TTITLE4=Howlin' At The Moon
TTITLE5=Hey Good Lookin'
TTITLE6=My Heart Would Know
TTITLE7=Ramblin' Man
TTITLE8=Pictures From Life's Other Side
TTITLE9=I've Been Down That Road Before
TTITLE10=I Dreamed About Mama Last Night
TTITLE11=I'd Still Want You
TTITLE12=Lonesome Whistle
TTITLE13=Crazy Heart
TTITLE14=Half As Much
TTITLE15=Baby We're Really In Love
TTITLE16=I'm Sorry For You My Friend
TTITLE17=Honky Tonk Blues
TTITLE18=Won't You Sometimes Think Of Me
TTITLE19=Why Should I Cry
TTITLE20=You Broke Your Own Heart
TTITLE21=I Watched My Dream World Crumble Like Clay
TTITLE22=In My Dreams You Still Belong To Me
TTITLE23=I Told A Lie To My Heart
TTITLE24=Singing Waterfall
TTITLE25=Pan American
TTITLE26=I'm Goin' Home
TTITLE27=A Home In Heaven
EXTD=
EXTT0=
EXTT1=
EXTT2=
EXTT3=
EXTT4=
EXTT5=
EXTT6=
EXTT7=
EXTT8=
EXTT9=
EXTT10=
EXTT11=
EXTT12=
EXTT13=
EXTT14=
EXTT15=
EXTT16=
EXTT17=
EXTT18=
EXTT19=
EXTT20=
EXTT21=
EXTT22=
EXTT23=
EXTT24=
EXTT25=
EXTT26=
EXTT27=
PLAYORDER=
